<svg version="1.1" xmlns="http://www.w3.org/2000/svg" width="2260" height="512" viewBox="0 0 2260 512">
<path fill="#1a1918" d="M2148.435 46.069l92.712 0.51c0 0-172.37 233.566-186.443 252.601-4.572 6.164-11.517 12.812-15.036 21.052-8.902 20.716-18.043 66.159-18.043 66.159l-84.829 0.42c0 0 13.198-47.365 12.655-72.594-0.479-22.041-11.729-44.053-18.043-66.159-6.377-22.373-15.036-66.159-15.036-66.159h87.21l12.026 48.115 132.826-183.947z"></path>
<path fill="#1a1918" d="M1972.881 95.328c17.109 10.316 27.607 67.211 27.607 67.211s-89.524 1.321-138.243 1.321h-42.1l-51.121 222.532h-78.185c0 0 48.655-241.835 60.143-285.683 3.727-14.192 25.501-11.76 62.278-11.76h58.729c37.923 0 82.247-4.84 100.892 6.376z"></path>
<path fill="#1a1918" d="M1608.89 203.705c0 0 2.437-14.286-8.27-30.825-9.14-14.102-17.588-17.38-41.646-18.131-67.932-2.136-66.612 48.205-66.612 48.205l116.528 0.751zM1682.566 146.059c9.955 35.906-9.021 120.285-9.021 120.285s-99.089-1.656-153.364 0c-16.874 0.514-37.078-1.834-42.1 6.015-7.068 11.004 2.581 27.938 10.762 35.091 9.416 8.24 27.755 9.174 34.344 10.014 44.053 5.596 136.255 1.443 136.255 1.443l-15.97 70.726c0 0-130.295 6.529-195.465-9.021-12.868-3.065-24.928-9.259-33.079-18.043-2.225-2.403-4.152-5.68-6.257-8.507-1.681-2.259-6.581-9.683-8.78-15.55-14.884-39.663 1.745-115.654 18.043-156.37 1.893-4.72 4.271-10.702 6.771-15.788 3.124-6.343 5.77-13.5 8.265-17.291 1.681-2.615 3.761-4.3 5.506-6.767 2.012-2.917 4.356-5.744 6.525-8.266 6.011-6.98 12.838-11.912 21.048-18.043 27.153-20.331 76.292-36.118 135.322-30.073 22.224 2.284 55.787 10.223 72.174 33.079 4.389 6.105 6.555 18.221 9.021 27.064v0 0z"></path>
<path fill="#1a1918" d="M1323.959 88.68l75.812-0.45c0 0-42.249 200.428-63.781 298.163h-87.21c-60.954 0-115.234 7.548-138.327-36.089-22.402-42.368-1.024-112.045 9.021-159.38 7.098-33.5 22.045-101.972 22.045-101.972l78.546-0.722c0 0-22.195 106.603-31.428 159.83-3.307 19.065-10.129 37.019-3.005 51.121 6.767 13.415 16.238 14.375 45.106 15.036 9.144 0.212 39.094 0 39.094 0l54.128-225.538z"></path>
<path fill="#1a1918" d="M969.115 233.023c7.938-28.206 19.515-58.788 18.043-84.201-1.592-27.183-24.385-51.932-39.090-57.133-44.295-15.639-85.763 6.224-102.243 24.053-21.324 23.099-28.541 50.073-36.089 87.21-5.621 27.573-10.223 56.683 0 78.185 18.102 38.012 74.547 29.712 135.322 30.074 9.021-24.177 16.48-51.334 24.058-78.19v0 0zM1074.367 121.758c8.66 62.97-24.568 132.469-47.454 192.909 23.337 2.106 43.786-0.327 45.258 1.413 1.533 2.259-15.639 72.144-21.625 72.322-18.522 0.484-79.895 0.993-105.49 0.993-83.509 0-161.634 5.442-201.476-36.084-16.178-16.871-27.365-45.802-30.073-66.159-4.513-33.983 1.142-71.393 9.021-102.243 7.128-27.849 16.268-54.131 30.073-78.189 35.091-61.255 96.139-106.722 198.47-96.228 19.846 2.046 48.353 10.736 66.159 21.048 1.231 0.726 5.536 4.152 6.525 4.754 24.058 15.308 45.981 51.843 50.612 85.462v0 0z"></path>
<path fill="#1a1918" d="M704.875 89.040c-5.052 23.005-10.104 49.080-15.428 71.813h-84.201c6.525-25.2 11.517-50.251 18.043-72.174 26.944 0 51.996 0.361 81.586 0.361z"></path>
<path fill="#1a1918" d="M602.241 181.901h81.191c-10.613 58.763-31.631 153.546-48.112 219.522-10.316 41.289-17.202 71.422-45.11 93.221-2.496 1.957-3.935 1.027-6.011 3.010-5.145 4.904-28.932 10.587-42.1 12.026-21.413 2.318-45.62 0.301-71.932-0.238 6.886-25.17 14.675-55.392 20.81-77.947 64.142 7.76 65.767-52.866 78.185-111.264 7.188-33.741 28.961-124.798 33.079-138.332z"></path>
<path fill="#21609b" d="M412.788 335.27l-1.74 4.509c-29.653 57.736-82.188 93.162-157.125 94.725-35.032 0.721-68.412-8.265-90.216-18.043-47.059-21.142-86.637-60.351-108.254-102.243-31.008-60.053-36.599-143.591 27.874-205.989 0.993 0-7.82 13.53-6.826 13.53l-1.775 5.774c-46.46 145.455 96.677 270.106 235.82 255.849 33.44-3.425 76.084-21.74 102.243-48.112z"></path>
<path fill="#21609b" d="M328.586 275.123c35.007 0.242 71.57-16.119 93.221-39.090-18.942 48.087-73.791 78.996-147.349 69.164-61.587-8.24-120.255-70.216-126.3-132.316-4.419-45.195 11.335-72.169 37.291-104.888-9.021 17.112-12.392 30.311-13.232 38.73-9.862 97.764 78.095 167.892 156.37 168.401z"></path>
<path fill="#21609b" d="M418.294 153.696c-5.442 12.481-36.776 36.055-50.612 39.001-54.789 11.67-89.88-14.311-108.258-43.875-2.734-4.419-7.786-16.476-8.69-19.546-7.128-24.236-3.851-60.894 17.414-79.871-6.406 18.043-7.341 39.001-3.969 52.624 2.042 8.24 8.265 22.618 14.493 31.666 11.335 16.48 18.522 20.483 33.079 29.232 6.555 3.94 13.589 7.098 16.628 7.969 13.801 4.059 42.94 14.765 89.915-17.202z"></path>
</svg>
