<svg version="1.1" xmlns="http://www.w3.org/2000/svg" width="1140" height="1024" viewBox="0 0 1140 1024">
<path fill="#53c1de" d="M926.337 339.624c-11.231-3.907-23.439-7.813-35.647-11.231 1.953-8.302 3.907-16.114 5.371-24.416 26.857-130.38 9.278-235.857-50.785-270.039-57.622-33.206-151.867 1.465-246.6 83.99-9.278 7.813-18.068 16.602-27.346 25.392-6.348-5.86-12.207-11.719-18.068-17.091-99.616-88.385-199.721-125.985-259.295-90.826-57.622 33.206-74.712 132.334-50.296 255.878 2.441 11.719 4.883 23.928 8.302 36.623-14.161 3.907-27.834 8.302-41.018 12.697-116.708 40.53-191.42 104.5-191.42 170.911 0 68.364 80.084 136.729 201.675 178.724 9.766 3.419 19.533 6.348 29.787 9.278-3.419 13.185-6.348 26.369-8.79 39.554-22.951 121.591-4.883 218.277 52.25 250.995 59.086 34.182 158.703-0.976 255.39-85.455 7.813-6.836 15.138-13.673 22.951-20.997 9.766 9.766 20.021 18.556 29.787 27.346 93.757 80.572 186.537 113.289 243.669 80.084 59.086-34.182 78.619-137.705 53.227-264.179-1.953-9.766-3.907-19.533-6.836-29.299 6.836-1.953 13.673-4.395 20.509-6.348 126.474-41.996 208.999-109.871 208.999-178.724 0.488-67.876-76.665-131.846-195.815-172.864v0 0z"></path>
<path fill="#fff" d="M898.992 645.31c-5.86 1.953-12.207 3.907-18.556 5.86-14.161-44.437-32.718-91.315-55.668-139.658 21.974-47.367 40.042-93.757 53.715-137.705 11.231 3.419 22.463 6.836 32.718 10.255 102.058 35.159 164.562 86.921 164.562 126.963-0.488 42.972-67.388 98.152-176.771 134.287v0 0zM853.579 735.16c11.231 55.668 12.697 105.964 5.371 145.518-6.348 35.647-20.021 59.086-36.135 68.364-34.67 20.021-108.894-5.86-189.466-75.2-9.278-7.813-18.556-16.114-27.834-25.392 31.252-34.182 62.017-73.736 92.292-117.196 53.227-4.883 103.523-12.697 149.425-22.951 2.93 9.278 4.883 18.068 6.348 26.857v0 0zM395.538 946.113c-34.182 12.207-61.039 12.207-77.154 2.93-34.67-20.021-49.32-97.663-29.299-201.675 2.441-11.719 4.883-23.928 7.813-36.623 45.413 9.766 95.221 17.091 148.936 21.486 30.764 42.972 62.505 82.526 94.733 117.196-6.836 6.836-14.161 13.185-20.997 19.533-43.46 37.113-86.431 63.481-124.032 77.154v0 0zM236.347 645.31c-53.715-18.556-98.152-42.484-128.915-68.364-27.346-23.439-41.018-46.878-41.018-65.434 0-40.042 60.063-91.315 159.679-126.474 12.207-4.395 24.904-8.302 38.089-11.719 13.673 44.925 31.74 91.804 53.715 139.17-21.974 48.344-40.53 95.71-54.691 141.124-9.278-2.441-18.068-5.371-26.857-8.302v0 0zM289.572 282.004c-20.509-105.964-6.836-186.049 27.834-206.070 37.113-21.486 118.661 9.278 204.604 85.455 5.371 4.883 11.231 9.766 16.602 15.138-32.228 34.182-63.969 73.736-93.757 116.22-51.761 4.883-101.57 12.697-147.472 22.951-2.93-11.231-5.371-22.463-7.813-33.694v0 0zM765.681 399.687c-10.743-19.044-21.974-37.113-33.694-55.18 35.159 4.395 68.853 10.255 100.593 17.58-9.278 30.275-21.486 62.505-35.159 95.221-10.255-19.533-20.509-38.577-31.74-57.622v0 0zM571.332 210.709c21.974 23.439 43.46 49.808 64.946 78.619-21.486-0.976-43.46-1.465-65.434-1.465s-43.46 0.488-64.946 1.465c21.486-28.811 43.46-55.18 65.434-78.619v0 0zM376.005 399.687c-10.743 19.044-21.486 38.089-31.252 57.133-13.673-32.718-25.392-64.458-35.159-95.71 31.252-6.836 64.946-12.697 100.105-17.091-11.231 18.556-22.463 37.113-33.694 55.668v0 0zM411.164 681.445c-36.135-3.907-70.317-9.278-101.57-16.114 9.766-31.252 21.974-63.969 35.647-97.175 9.766 19.044 20.509 38.089 31.252 57.133v0c11.231 19.044 22.463 37.601 34.67 56.156v0 0zM572.797 815.244c-22.463-23.928-44.437-50.785-66.411-79.595 20.997 0.976 42.484 1.465 64.458 1.465 22.463 0 44.925-0.488 66.411-1.465-20.997 29.299-42.972 55.668-64.458 79.595v0 0zM797.91 566.203c14.65 33.694 27.346 65.922 37.113 97.175-32.228 7.324-66.411 13.185-103.035 17.58 11.231-18.068 22.951-37.113 33.694-56.156 11.231-19.533 21.974-39.065 32.228-58.598v0 0zM725.151 600.874c-17.091 29.787-35.159 58.598-52.738 85.455-32.718 2.441-66.411 3.419-101.081 3.419-34.182 0-67.876-0.976-100.105-2.93-18.556-27.346-36.623-56.156-53.715-85.455v0c-17.091-29.299-32.718-59.086-46.878-88.874 14.161-29.787 29.787-59.575 46.878-88.874v0c17.091-29.787 35.159-58.11 53.715-84.967 32.718-2.441 66.411-3.907 100.593-3.907v0c34.182 0 67.876 1.465 100.593 3.907 18.068 26.857 36.135 55.18 53.227 84.967s33.206 59.575 47.367 88.385c-15.138 29.299-30.764 59.086-47.855 88.874v0 0zM822.326 74.469c37.113 21.486 51.273 107.43 28.323 219.742-1.465 7.324-2.93 14.65-4.883 21.974-45.901-10.743-95.71-18.556-147.472-23.439-30.275-42.972-61.527-82.526-93.269-116.22 8.302-8.302 17.091-16.114 25.392-23.439 81.060-70.317 157.238-98.64 191.908-78.619v0 0z"></path>
<path fill="#53c1de" d="M570.843 412.872c54.203 0 98.64 43.949 98.64 98.64 0 54.203-43.949 98.64-98.64 98.64s-98.64-43.949-98.64-98.64c0-54.691 44.437-98.64 98.64-98.64z"></path>
</svg>
