<svg version="1.1" xmlns="http://www.w3.org/2000/svg" width="452" height="512" viewBox="0 0 452 512">
<path fill="#fff" d="M225.986 0.067l226.002 127.841v255.766l-226.002 127.841-226.002-127.841v-255.767z"></path>
<path fill="#8ed6fb" d="M411.649 374.805l-178.159 100.891v-78.461l111.039-61.149 67.118 38.719zM423.845 363.803v-210.822l-65.156 37.61v135.601l65.156 37.61zM39.641 374.805l178.159 100.806v-78.461l-111.040-61.063-67.118 38.719zM27.445 363.803v-210.822l65.156 37.61v135.601l-65.156 37.61zM35.035 139.335l182.764-103.364v75.903l-118.033 64.901-64.731-37.44zM416.17 139.335l-182.679-103.364v75.903l117.948 64.986 64.731-37.524z"></path>
<path fill="#1c78c0" d="M217.799 379.325l-109.504-60.296v-119.312l109.504 63.195v116.412zM233.491 379.325l109.504-60.211v-119.397l-109.505 63.195v116.412zM115.629 185.9l110.016-60.466 109.931 60.466-109.931 63.451-110.016-63.451z"></path>
</svg>
