<svg version="1.1" xmlns="http://www.w3.org/2000/svg" width="232" height="512" viewBox="0 0 232 512">
<path fill="#d34a47" d="M177.948 496.596l4.903-81.695 13.538-23.11c0 0-30.811 12.604-82.395 12.604s-81.93-12.372-81.93-12.372l15.172 25.209 5.367 79.363c0 8.509 28.059 15.405 62.674 15.405 34.612 0 62.673-6.897 62.673-15.405z"></path>
<path fill="#d34a47" d="M162.483 115.089l10.291-40.677 56.988-59.965-15.020-12.793-60.333 63.878-11.948 48.597c-8.657-0.293-17.692-0.449-26.987-0.449-63.542 0-115.054 7.242-115.054 16.173s51.511 16.173 115.054 16.173c63.541 0 115.052-7.241 115.052-16.173 0-6.577-27.937-12.237-68.042-14.764z"></path>
<path fill="#fff" d="M156.497 137.869c0 0-2.228 0.5-8.785 0.528-6.558 0.027-11.214-0.042-13.069-1.732-0.499-0.453-0.772-1.354-0.769-1.964 0.006-1.161 0.829-1.845 1.879-2.273l0.993 1.558c-0.432 0.149-0.679 0.325-0.679 0.513-0.004 0.882 6.705 1.485 11.837 1.42 5.132-0.064 11.333-0.486 11.339-1.355 0-0.262-0.469-0.511-1.285-0.706l0.988-1.547c1.33 0.413 2.49 1.21 2.488 2.591-0.012 2.347-3 2.704-4.937 2.966z"></path>
<path fill="#d34a47" d="M229.65 14.566c1.433-1.655-0.742-5.888-4.857-9.454-4.117-3.564-8.615-5.112-10.052-3.458-1.434 1.655 0.742 5.888 4.858 9.453 4.115 3.565 8.615 5.115 10.049 3.459z"></path>
<path fill="#d34a47" d="M175.208 297.046c-1.351-12.995 28.423-31.815 20.782-32.417-16.45 0.94-24.637 19.277-32.912 38.481-3.032 7.038-13.411 37.051-20.216 33.357-6.804-3.693 8.822-28.373 13.202-43.030-5.054 3.705-23.587 18.106-28.364 4.62-7.679 6.522-24.087 10.055-22.236-7.076-4.085 7.236-13.254 17.339-24.26 13.141-14.453-5.512 8.374-51.55 14.050-49.227 5.677 2.322-1.145 12.809-2.933 16.882-3.93 8.963-8.469 20.23-5.437 22.536 5.195 3.952 19.334-14.949 19.648-15.365 2.644-3.493 10.177-26.349 16.249-23.725s-15.145 32.801-7.212 38.79c1.6 1.209 8.146-0.745 12.128-5.054 2.576-2.787 1.691-8.961 10.279-29.442s16.243-45.988 22.133-44.045c5.891 1.942 1.035 15.034-1.077 19.914-9.916 22.905-27.063 60.746-18.976 57.882s12.297-3.032 20.215-12.298 7.553-24.529 12.831-24.205c5.28 0.325 4.393 5.219 3.113 8.946 5.195-5.944 24.624-18.464 29.314-6.065 5.556 14.68-27.797 35.883-19.481 34.802 8.108-1.054 21.244-9.373 26.852-16.938l15.438-138.787c0 0-15.534 12.856-114.362 12.856s-112.755-12.588-112.755-12.588l13.143 126.68c6.977-19.827 23.542-59.931 49.654-58.585 11.878 0.613 27.734 23.484 14.152 24.26-5.749 0.327-6.332-11.417-13.141-13.141-4.913-1.245-11.752 2.749-16.173 7.076-8.816 8.627-27.775 42.667-25.27 59.638 3.192 21.635 29.856-7.518 34.367-16.174 3.178-6.097 5.324-24.162 12.273-22.267s-0.606 20.538-5.644 37.021c-5.659 18.509-8.633 38.031-15.727 35.786-7.093-2.244 4.461-26.137 4.043-30.324-6.668 6.151-18.95 21.724-34.664 14.017l8.163 78.667c0 0 21.694 17.14 87.043 17.14s87.847-16.873 87.847-16.873l10.135-91.115c-8.292 8.075-34.536 22.413-36.217 6.251z"></path>
</svg>
