<svg version="1.1" xmlns="http://www.w3.org/2000/svg" width="1024" height="1024" viewBox="0 0 1024 1024">
<path fill="#f0db4f" d="M0 0h1024v1024h-1024v-1024z"></path>
<path fill="#323330" d="M269.247 855.729l78.364-47.424c15.118 26.804 28.87 49.484 61.858 49.484 31.62 0 51.556-12.369 51.556-60.481v-327.192h96.23v328.553c0 99.669-58.423 145.036-143.661 145.036-76.98 0-121.666-39.869-144.348-87.983z"></path>
<path fill="#323330" d="M609.524 845.418l78.354-45.366c20.626 33.685 47.434 58.428 94.86 58.428 39.873 0 65.299-19.935 65.299-47.431 0-32.994-26.119-44.681-70.111-63.92l-24.051-10.318c-69.429-29.551-115.484-66.669-115.484-145.031 0-72.174 54.989-127.166 140.914-127.166 61.177 0 105.168 21.311 136.784 76.989l-74.924 48.113c-16.498-29.555-34.364-41.238-61.858-41.238-28.183 0-46.056 17.871-46.056 41.238 0 28.87 17.873 40.559 59.111 58.431l24.056 10.31c81.798 35.058 127.854 70.797 127.854 151.217 0 86.614-68.049 134.038-159.468 134.038-89.358 0-147.098-42.615-175.276-98.294z"></path>
</svg>
