<svg version="1.1" xmlns="http://www.w3.org/2000/svg" width="563" height="512" viewBox="0 0 563 512">
<path fill="#000" d="M0.852 0h52.282v346.958h206.749v42.776h-259.031v-389.734z"></path>
<path fill="#000" d="M402.468 102.186v0c-38.023 2.376-76.046 23.764-95.057 57.034-23.764 33.27-28.517 76.046-23.764 114.069 4.753 35.647 19.012 71.293 47.529 95.057 30.894 23.764 71.293 30.894 106.939 26.14 38.023-2.377 71.293-21.388 92.681-49.905 23.764-35.647 28.517-78.422 23.764-121.197-2.376-35.647-19.011-73.669-49.905-95.057-28.517-23.764-66.54-30.894-102.187-26.141zM409.598 142.585c23.764-2.376 49.905 4.753 68.916 21.388 16.635 19.012 26.14 42.775 28.517 66.54 2.377 26.14 0 54.658-11.882 78.422s-33.27 40.399-59.411 45.152c-23.764 4.753-49.905-2.377-66.54-16.635-19.012-14.259-30.894-35.647-35.647-57.034-4.753-30.893-2.377-61.787 9.506-90.304 11.882-26.141 38.023-45.152 66.54-47.529v0z"></path>
<path fill="#3492ff" d="M0.852 451.521h560.837v59.411h-560.837v-59.411z"></path>
</svg>
