<svg xmlns="http://www.w3.org/2000/svg" viewBox="0 0 1140 1024"><path fill="#53c1de" d="M926.337 339.624c-11.23-3.907-23.44-7.813-35.647-11.23 1.953-8.303 3.907-16.115 5.37-24.417 26.858-130.38 9.28-235.857-50.784-270.04-57.622-33.205-151.867 1.466-246.6 83.99-9.278 7.814-18.068 16.603-27.346 25.393-6.348-5.86-12.207-11.72-18.068-17.09C453.646 37.843 353.542.243 293.967 35.402 236.345 68.61 219.255 167.737 243.67 291.28c2.442 11.72 4.884 23.93 8.303 36.624-14.16 3.907-27.834 8.302-41.018 12.697-116.708 40.53-191.42 104.5-191.42 170.92 0 68.37 80.084 136.73 201.675 178.73 9.766 3.42 19.533 6.35 29.787 9.28-3.42 13.188-6.348 26.37-8.79 39.557-22.95 121.59-4.883 218.278 52.25 250.996 59.086 34.18 158.703-.976 255.39-85.455 7.813-6.837 15.138-13.674 22.95-21 9.767 9.77 20.022 18.56 29.788 27.35 93.757 80.57 186.537 113.29 243.67 80.08 59.085-34.18 78.618-137.7 53.226-264.175-1.95-9.768-3.9-19.535-6.83-29.3 6.84-1.954 13.68-4.396 20.51-6.35 126.48-41.995 209-109.87 209-178.723.49-67.874-76.66-131.844-195.81-172.86z"/><path fill="#fff" d="M898.992 645.31c-5.86 1.953-12.207 3.907-18.556 5.86-14.16-44.437-32.718-91.315-55.668-139.658 21.974-47.367 40.042-93.757 53.715-137.705 11.23 3.42 22.463 6.836 32.718 10.255 102.06 35.16 164.57 86.92 164.57 126.963-.49 42.972-67.39 98.152-176.77 134.287zm-45.413 89.85c11.23 55.668 12.69 105.964 5.37 145.518-6.35 35.647-20.02 59.086-36.14 68.364-34.67 20.02-108.9-5.86-189.47-75.2-9.28-7.813-18.56-16.114-27.84-25.392 31.25-34.182 62.013-73.736 92.29-117.196 53.224-4.883 103.52-12.697 149.422-22.95 2.93 9.277 4.882 18.067 6.347 26.856zM395.53 946.113c-34.182 12.207-61.04 12.207-77.154 2.93-34.67-20.02-49.32-97.663-29.3-201.675 2.442-11.72 4.884-23.928 7.814-36.623 45.413 9.766 95.22 17.09 148.936 21.486 30.766 42.98 62.507 82.53 94.735 117.2-6.83 6.84-14.16 13.19-20.99 19.54-43.46 37.12-86.43 63.48-124.03 77.16zM236.342 645.31c-53.71-18.556-98.15-42.484-128.91-68.364-27.346-23.44-41.02-46.878-41.02-65.434 0-40.042 60.065-91.315 159.68-126.474 12.208-4.395 24.905-8.302 38.09-11.72 13.673 44.926 31.74 91.805 53.715 139.17-21.974 48.345-40.53 95.71-54.69 141.125-9.28-2.44-18.07-5.37-26.858-8.302zm53.23-363.306c-20.51-105.964-6.836-186.05 27.834-206.07 37.113-21.486 118.66 9.278 204.604 85.455 5.37 4.88 11.23 9.76 16.602 15.13-32.228 34.18-63.97 73.73-93.757 116.22-51.76 4.88-101.57 12.69-147.472 22.95-2.93-11.23-5.37-22.46-7.813-33.7zm476.11 117.683c-10.744-19.044-21.975-37.113-33.695-55.18 35.16 4.395 68.853 10.255 100.593 17.58-9.278 30.275-21.486 62.505-35.16 95.22-10.254-19.532-20.508-38.576-31.74-57.62zM571.33 210.71c21.974 23.438 43.46 49.807 64.946 78.618-21.486-.976-43.46-1.465-65.434-1.465s-43.46.488-64.946 1.465c21.486-28.81 43.46-55.18 65.434-78.62zM376.005 399.686c-10.743 19.044-21.486 38.09-31.252 57.133-13.673-32.72-25.392-64.46-35.16-95.71 31.253-6.84 64.947-12.7 100.106-17.09L376 399.68zm35.16 281.758c-36.136-3.907-70.318-9.278-101.57-16.114 9.765-31.25 21.973-63.968 35.646-97.174 9.77 19.044 20.51 38.09 31.26 57.133 11.23 19.04 22.47 37.6 34.67 56.15zm161.632 133.8c-22.463-23.93-44.437-50.786-66.41-79.596 20.996.975 42.483 1.464 64.457 1.464 22.463 0 44.925-.488 66.41-1.465-20.996 29.298-42.97 55.667-64.457 79.594zM797.91 566.202c14.65 33.694 27.346 65.922 37.113 97.175-32.228 7.324-66.41 13.185-103.035 17.58 11.23-18.068 22.95-37.113 33.694-56.156 11.23-19.53 21.974-39.06 32.228-58.59zm-72.76 34.67c-17.09 29.788-35.158 58.6-52.737 85.456-32.718 2.44-66.41 3.418-101.08 3.418-34.183 0-67.877-.976-100.106-2.93-18.556-27.346-36.623-56.156-53.715-85.455-17.09-29.3-32.718-59.08-46.878-88.87 14.16-29.79 29.787-59.57 46.878-88.87 17.09-29.78 35.16-58.11 53.715-84.96 32.718-2.44 66.41-3.905 100.593-3.905 34.182 0 67.876 1.466 100.593 3.908 18.068 26.86 36.135 55.18 53.227 84.97s33.206 59.57 47.367 88.38c-15.138 29.3-30.764 59.085-47.855 88.873zM822.327 74.47C859.44 95.954 873.6 181.9 850.65 294.21c-1.466 7.325-2.93 14.65-4.884 21.975-45.9-10.743-95.71-18.556-147.472-23.44-30.275-42.97-61.527-82.525-93.27-116.22 8.303-8.3 17.092-16.113 25.393-23.438 81.06-70.317 157.238-98.64 191.908-78.62z"/><path fill="#53c1de" d="M570.843 412.872c54.203 0 98.64 43.95 98.64 98.64 0 54.203-43.95 98.64-98.64 98.64s-98.64-43.95-98.64-98.64 44.437-98.64 98.64-98.64z"/></svg>
