<svg version="1.1" xmlns="http://www.w3.org/2000/svg" width="1024" height="1024" viewBox="0 0 1024 1024">
<path fill="#007acc" d="M0 512v512h1024v-1024h-1024z"></path>
<path fill="#fff" d="M226.445 515.396l-0.325 41.935h133.283v378.717h94.273v-378.717h133.283v-41.123c0-22.756-0.488-41.773-1.138-42.26-0.488-0.65-81.595-0.975-179.931-0.813l-178.956 0.488-0.488 41.773z"></path>
<path fill="#fff" d="M826.267 472.433c26.006 6.502 45.836 18.042 64.041 36.897 9.427 10.077 23.406 28.444 24.543 32.833 0.325 1.3-44.211 31.208-71.192 47.949-0.975 0.65-4.876-3.576-9.265-10.077-13.166-19.18-26.982-27.469-48.112-28.932-31.045-2.113-51.037 14.141-50.875 41.285 0 7.964 1.138 12.678 4.389 19.18 6.827 14.141 19.505 22.593 59.327 39.822 73.305 31.533 104.676 52.338 124.18 81.92 21.78 32.996 26.657 85.658 11.865 124.83-16.254 42.585-56.564 71.517-113.29 81.107-17.554 3.088-59.164 2.601-78.019-0.813-41.123-7.314-80.132-27.632-104.188-54.288-9.427-10.403-27.794-37.547-26.657-39.497 0.488-0.65 4.714-3.251 9.427-6.014 4.551-2.601 21.78-12.516 38.034-21.943l29.42-17.067 6.177 9.102c8.615 13.166 27.469 31.208 38.847 37.222 32.67 17.229 77.531 14.791 99.637-5.039 9.427-8.615 13.328-17.554 13.328-30.72 0-11.865-1.463-17.067-7.639-26.006-7.964-11.378-24.218-20.968-70.38-40.96-52.825-22.756-75.581-36.897-96.386-59.327-12.028-13.003-23.406-33.808-28.119-51.2-3.901-14.466-4.876-50.712-1.788-65.341 10.89-51.037 49.412-86.634 105.001-97.199 18.042-3.413 59.977-2.113 77.694 2.276z"></path>
</svg>
