<svg version="1.1" xmlns="http://www.w3.org/2000/svg" width="1024" height="1024" viewBox="0 0 1024 1024">
  <path fill="#e23237" d="M963.757 200.199c-20.148-18.472-46.125-30.883-74.873-34.183-62.835-7-125.665-10.54-188.7-12.31-62.626-1.77-125.524-1.77-188.218-1.702-62.762-0.068-125.592-0.068-188.218 1.702-63.034 1.77-125.864 5.242-188.15 12.253-29.337 3.39-55.285 15.795-75.524 34.331-20.506 18.736-35.409 43.487-41.918 71.46-9.103 39.541-13.595 79.84-15.842 120.342-2.314 40.707-2.314 80.869-2.314 119.942 0 38.937 0 79.099 2.246 119.806 2.246 40.503 6.671 80.801 15.588 119.397 6.749 28.936 21.667 53.7 42.166 72.469 20.223 18.578 46.182 30.992 74.914 34.278 62.901 7 125.731 10.54 188.765 12.31 62.626 1.77 125.524 1.77 188.286 1.702 62.762 0.068 125.66 0.068 188.286-1.702 63.034-1.77 125.864-5.242 188.15-12.253 29.335-3.405 55.278-15.806 75.525-34.333 20.537-18.759 35.482-43.528 42.051-71.521 9.037-39.547 13.53-79.845 15.708-120.348 2.178-39.958 2.246-80.461 2.246-119.806h0.068v-1.974h-0.068c0-78.146 0-160.989-17.562-237.365-7.011-28.794-22.123-53.845-42.613-72.496z"></path>
  <path fill="#fff" d="M357.375 685.141c-0.011 0-0.025 0-0.038 0-6.087 0-11.602-2.442-15.621-6.401l-149.006-147.712c-3.994-3.951-6.468-9.432-6.468-15.49 0-0.082 0-0.165 0.001-0.246v-0.26c-0.001-0.106-0.003-0.233-0.003-0.358 0-6.020 2.476-11.462 6.465-15.362l149.013-147.719c4.037-3.999 9.591-6.468 15.725-6.468s11.688 2.47 15.726 6.47c3.992 3.935 6.465 9.403 6.465 15.451s-2.474 11.515-6.464 15.45l-133.967 132.742 133.965 132.739c3.993 3.937 6.467 9.406 6.467 15.452s-2.474 11.515-6.464 15.45c-4.118 3.879-9.678 6.263-15.794 6.265z"></path>
  <path fill="#fff" d="M665.399 678.606c-0.011 0-0.025 0-0.038 0-6.087 0-11.602-2.442-15.621-6.401-3.99-3.935-6.464-9.403-6.464-15.45s2.474-11.515 6.464-15.45l133.899-132.81-133.965-132.739c-3.993-3.937-6.467-9.406-6.467-15.452s2.474-11.515 6.464-15.45c4.039-4 9.594-6.471 15.727-6.471s11.688 2.47 15.726 6.47l148.939 147.646c3.997 4.016 6.468 9.556 6.468 15.671 0 0.090 0 0.181-0.001 0.271v0.259c0.001 0.106 0.003 0.233 0.003 0.358 0 6.020-2.476 11.462-6.465 15.362l-149.013 147.719c-3.951 3.994-9.431 6.467-15.49 6.467-0.059 0-0.117 0-0.176-0.001z"></path>
  <path fill="#fff" d="M473.369 713.050c-1.839-0.014-3.624-0.211-5.348-0.576-6.54-1.348-12.148-5.286-15.696-10.698-2.603-3.888-4.121-8.558-4.121-13.582 0-1.781 0.191-3.517 0.553-5.188l75.395-359.257c2.519-11.367 12.51-19.741 24.459-19.741 0.016 0 0.033 0 0.049 0 1.837 0.014 3.621 0.211 5.345 0.576 11.293 2.354 19.787 12.375 19.787 24.38 0 1.744-0.18 3.446-0.52 5.089l-75.327 359.188c-2.52 11.405-12.543 19.809-24.529 19.809-0.016 0-0.031 0-0.048 0z"></path>
</svg>
