<?xml version="1.0" standalone="no"?>
<!DOCTYPE svg PUBLIC "-//W3C//DTD SVG 20010904//EN"
 "http://www.w3.org/TR/2001/REC-SVG-20010904/DTD/svg10.dtd">
<svg version="1.0" xmlns="http://www.w3.org/2000/svg"
 width="16.000000pt" height="16.000000pt" viewBox="0 0 16.000000 16.000000"
 preserveAspectRatio="xMidYMid meet">
<metadata>
Created by potrace 1.11, written by Peter Selinger 2001-2013
</metadata>
<g transform="translate(0.000000,16.000000) scale(0.002286,-0.002286)"
fill="#000000" stroke="none">
<path d="M2235 5954 c-700 -23 -1293 -70 -1451 -114 -322 -89 -575 -351 -659
-685 -56 -221 -98 -555 -115 -910 -13 -283 -13 -1216 0 -1498 24 -520 92 -914
190 -1108 127 -249 373 -438 640 -492 130 -27 575 -65 1035 -89 351 -18 2896
-18 3250 0 506 26 961 67 1079 98 260 67 490 261 611 516 86 181 153 594 175
1083 13 283 13 1214 0 1502 -15 343 -58 683 -110 888 -92 360 -375 639 -720
709 -119 24 -529 59 -1010 87 -166 10 -2674 21 -2915 13z m1567 -1044 c44 -13
93 -66 109 -118 10 -36 -10 -142 -250 -1284 -143 -685 -265 -1259 -271 -1274
-22 -57 -90 -104 -152 -104 -83 0 -167 80 -168 159 0 47 517 2506 534 2539 18
35 44 58 86 76 42 18 63 19 112 6z m803 -240 c28 -11 1044 -1008 1083 -1063
26 -37 30 -113 8 -155 -16 -31 -1050 -1053 -1083 -1070 -28 -15 -98 -15 -126
-1 -62 32 -94 93 -82 157 6 32 68 99 481 513 l475 476 -464 459 c-255 252
-472 474 -482 493 -58 113 67 238 190 191z m-2079 -61 c57 -34 80 -119 50
-177 -8 -15 -224 -236 -480 -492 l-466 -464 466 -459 c255 -253 471 -472 479
-488 43 -82 -10 -188 -102 -205 -80 -15 -77 -17 -638 538 -289 287 -533 534
-541 549 -18 36 -18 102 0 137 8 15 251 260 540 546 389 383 536 522 564 532
43 15 84 10 128 -17z"/>
</g>
</svg>
